<?xml version="1.0" encoding="UTF-8" standalone="no"?>
<!-- Created with Inkscape (http://www.inkscape.org/) -->

<svg
   width="64px"
   height="64px"
   viewBox="0 0 64 64"
   version="1.1"
   id="svg1"
   xml:space="preserve"
   inkscape:version="1.4.2 (f4327f4, 2025-05-13)"
   sodipodi:docname="icon_opt.svg"
   inkscape:export-filename="icon\icon512.png"
   inkscape:export-xdpi="768"
   inkscape:export-ydpi="768"
   xmlns:inkscape="http://www.inkscape.org/namespaces/inkscape"
   xmlns:sodipodi="http://sodipodi.sourceforge.net/DTD/sodipodi-0.dtd"
   xmlns:xlink="http://www.w3.org/1999/xlink"
   xmlns="http://www.w3.org/2000/svg"
   xmlns:svg="http://www.w3.org/2000/svg"><sodipodi:namedview
     id="namedview1"
     pagecolor="#ffffff"
     bordercolor="#000000"
     borderopacity="0.25"
     inkscape:showpageshadow="2"
     inkscape:pageopacity="0.0"
     inkscape:pagecheckerboard="0"
     inkscape:deskcolor="#d1d1d1"
     inkscape:document-units="px"
     inkscape:zoom="4"
     inkscape:cx="2.625"
     inkscape:cy="19.25"
     inkscape:window-width="1920"
     inkscape:window-height="991"
     inkscape:window-x="-9"
     inkscape:window-y="-9"
     inkscape:window-maximized="1"
     inkscape:current-layer="layer2" /><defs
     id="defs1"><linearGradient
       id="linearGradient4"
       inkscape:collect="always"><stop
         style="stop-color:#2b2f34;stop-opacity:1;"
         offset="0"
         id="stop4" /><stop
         style="stop-color:#24282c;stop-opacity:1;"
         offset="1"
         id="stop5" /></linearGradient><inkscape:path-effect
       effect="fillet_chamfer"
       id="path-effect1"
       is_visible="true"
       lpeversion="1"
       nodesatellites_param="F,0,0,1,0,6,0,1 @ F,0,0,1,0,6,0,1 @ F,0,0,1,0,6,0,1 @ F,0,0,1,0,6,0,1"
       radius="6"
       unit="px"
       method="auto"
       mode="F"
       chamfer_steps="1"
       flexible="false"
       use_knot_distance="true"
       apply_no_radius="true"
       apply_with_radius="true"
       only_selected="false"
       hide_knots="false" /><linearGradient
       inkscape:collect="always"
       xlink:href="#linearGradient4"
       id="linearGradient5"
       x1="46.21875"
       y1="7.65625"
       x2="46.21875"
       y2="27.78125"
       gradientUnits="userSpaceOnUse" /></defs><g
     inkscape:groupmode="layer"
     id="layer2"
     inkscape:label="main"
     style="display:inline;opacity:1"><path
       id="rect1"
       style="display:inline;opacity:1;fill:#1e1e1e;stroke-width:3.77953;stroke-linejoin:round;stroke-miterlimit:10"
       d="m 7.8,1.8 h 48.5 a 6,6 45 0 1 6,6 v 48.5 a 6,6 135 0 1 -6,6 H 7.8 a 6,6 45 0 1 -6,-6 V 7.8 a 6,6 135 0 1 6,-6 z"
       inkscape:path-effect="#path-effect1"
       inkscape:original-d="M 1.8,1.8 H 62.3 V 62.3 H 1.8 Z" /><circle
       style="display:inline;opacity:1;fill:url(#linearGradient5);stroke:none;stroke-width:0.425083;stroke-linejoin:round;stroke-miterlimit:10;stroke-dasharray:none;stroke-opacity:1"
       id="path3"
       cx="46.21875"
       cy="17.71875"
       r="10.0625" /><path
       style="display:inline;fill:none;fill-opacity:1;stroke:none;stroke-opacity:1"
       d="m 38.351663,47.500954 c 5.756582,-2.682509 9.683799,-8.926715 9.363365,-15.303973 -0.0198,-6.988107 -5.163452,-13.498244 -11.872678,-15.337515 -5.880907,-1.719593 -12.643025,0.174468 -16.697279,4.790709 -1.09164,1.228152 -2.052249,2.598192 -2.707571,4.108389 0.432876,0.88283 0.918502,-1.383416 1.454359,-1.790907 3.0284,-4.776923 8.732939,-7.683283 14.381988,-7.290393 7.03761,0.304593 13.411973,5.835811 14.730592,12.752402 0.391435,1.97712 0.379914,4.046258 0.07907,6.03568 -0.890096,5.297139 -4.686877,9.902631 -9.60844,11.988488 0.294817,0.163755 0.563544,0.337377 0.87659,0.04712 z"
       id="path2"
       inkscape:label="arc" /><path
       style="display:inline;fill:none;fill-opacity:1;stroke:#ebebeb;stroke-width:0.4;stroke-linejoin:round;stroke-miterlimit:10;stroke-dasharray:none;stroke-opacity:1"
       id="path1"
       sodipodi:type="arc"
       sodipodi:cx="31.353598"
       sodipodi:cy="32.673714"
       sodipodi:rx="16.200291"
       sodipodi:ry="16.258316"
       sodipodi:start="3.5619781"
       sodipodi:end="1.1754571"
       sodipodi:arc-type="arc"
       d="M 16.563839,26.038494 A 16.200291,16.258316 0 0 1 33.750144,16.59428 16.200291,16.258316 0 0 1 47.430637,30.672025 16.200291,16.258316 0 0 1 37.592674,47.67796"
       sodipodi:open="true" /></g></svg>
