<?xml version="1.0" encoding="UTF-8"?>
<svg width="64px" height="64px" version="1.1" viewBox="0 0 64 64" xml:space="preserve" xmlns="http://www.w3.org/2000/svg" xmlns:xlink="http://www.w3.org/1999/xlink"><defs><linearGradient id="linearGradient5" x1="46.2" x2="46.2" y1="7.66" y2="27.8" gradientUnits="userSpaceOnUse"><stop stop-color="#2b2f34" offset="0"/><stop stop-color="#24282c" offset="1"/></linearGradient></defs><g><path d="m7.8 1.8h48.5a6 6 45 0 1 6 6v48.5a6 6 135 0 1-6 6h-48.5a6 6 45 0 1-6-6v-48.5a6 6 135 0 1 6-6z" fill="#1e1e1e" stroke-linejoin="round" stroke-miterlimit="10" stroke-width="3.78"/><circle cx="46.2" cy="17.7" r="10.1" fill="url(#linearGradient5)"/><path d="m38.4 47.5c5.76-2.68 9.68-8.93 9.36-15.3-0.0198-6.99-5.16-13.5-11.9-15.3-5.88-1.72-12.6 0.174-16.7 4.79-1.09 1.23-2.05 2.6-2.71 4.11 0.433 0.883 0.919-1.38 1.45-1.79 3.03-4.78 8.73-7.68 14.4-7.29 7.04 0.305 13.4 5.84 14.7 12.8 0.391 1.98 0.38 4.05 0.0791 6.04-0.89 5.3-4.69 9.9-9.61 12 0.295 0.164 0.564 0.337 0.877 0.0471z" fill="none"/><path d="m16.6 26a16.2 16.3 0 0 1 17.2-9.44 16.2 16.3 0 0 1 13.7 14.1 16.2 16.3 0 0 1-9.84 17" fill="none" stroke="#ebebeb" stroke-linejoin="round" stroke-miterlimit="10"/></g></svg>
